<?xml version="1.0" standalone="no"?>
<!DOCTYPE svg PUBLIC "-//W3C//DTD SVG 20010904//EN"
 "http://www.w3.org/TR/2001/REC-SVG-20010904/DTD/svg10.dtd">
<svg version="1.0" xmlns="http://www.w3.org/2000/svg"
 width="762.000000pt" height="141.000000pt" viewBox="0 0 762.000000 141.000000"
 preserveAspectRatio="xMidYMid meet">

<g transform="translate(0.000000,141.000000) scale(0.100000,-0.100000)"
fill="#000000" stroke="none">
<path d="M0 705 l0 -705 3810 0 3810 0 0 705 0 705 -3810 0 -3810 0 0 -705z
m2541 271 c-116 -162 -214 -301 -217 -309 -2 -7 53 -108 124 -223 l128 -210
-210 128 c-115 71 -215 127 -222 124 -7 -3 -145 -100 -307 -215 -162 -116
-298 -211 -301 -211 -3 0 86 128 199 285 113 157 212 296 220 309 15 22 11 31
-100 211 -64 103 -124 200 -133 214 l-17 26 25 -16 c26 -17 391 -240 401 -245
3 -2 142 95 310 215 167 120 306 217 307 215 2 -1 -91 -135 -207 -298z m-304
168 c87 -18 160 -51 146 -65 -6 -6 -31 0 -66 16 -114 53 -279 44 -396 -21 -47
-26 -61 -29 -61 -15 0 24 140 83 225 94 59 8 77 7 152 -9z m1031 -51 c13 -8
32 -28 42 -46 18 -29 20 -52 20 -272 0 -222 -2 -242 -20 -273 -29 -47 -76 -72
-135 -72 -65 0 -113 26 -139 76 -19 36 -21 56 -21 269 0 246 3 263 54 309 38
35 150 40 199 9z m1670 0 c35 -21 59 -68 66 -128 9 -75 3 -85 -50 -85 -24 0
-44 3 -44 8 -6 80 -12 109 -27 120 -20 14 -63 8 -75 -11 -12 -19 -10 -425 2
-448 13 -24 62 -26 81 -3 7 9 14 43 15 77 l1 62 49 0 49 0 -2 -77 c-2 -88 -19
-130 -66 -158 -43 -27 -131 -27 -174 0 -65 39 -68 50 -71 304 -4 252 4 300 54
333 52 33 144 37 192 6z m-1299 -1 c54 -27 73 -61 79 -141 5 -78 -15 -153 -46
-170 -15 -9 -15 -12 4 -33 36 -39 38 -50 44 -181 l5 -127 -52 0 c-29 0 -53 3
-54 8 0 4 -4 58 -8 120 -4 61 -11 116 -17 122 -5 5 -25 11 -44 12 l-35 3 -5
-130 -5 -130 -50 0 -50 0 -3 320 c-1 176 0 325 3 332 7 21 192 17 234 -5z
m386 4 c54 -23 75 -67 75 -155 0 -64 -4 -80 -26 -112 l-25 -37 24 -24 c35 -35
52 -124 38 -194 -22 -111 -59 -134 -215 -134 l-106 0 0 335 0 335 100 0 c65 0
113 -5 135 -14z m253 -323 l2 -333 -50 0 -50 0 0 336 0 335 48 -3 47 -3 3
-332z m378 312 c3 -14 3 -36 0 -49 -5 -22 -12 -25 -59 -28 l-52 -3 -3 -282 -2
-283 -50 0 -50 0 -2 283 -3 282 -52 3 -53 3 0 50 0 49 160 0 160 0 6 -25z
m522 -122 l3 -143 54 0 54 0 3 143 3 142 45 3 c71 5 70 9 70 -319 0 -157 -3
-301 -6 -318 -7 -31 -8 -32 -58 -29 l-51 3 -3 138 -3 137 -54 0 -55 0 0 -124
c0 -68 -3 -131 -6 -140 -4 -12 -20 -16 -55 -16 l-49 0 0 328 c0 181 3 332 7
336 4 4 28 6 53 4 l45 -3 3 -142z m564 -28 c15 -93 36 -228 48 -300 11 -71 23
-145 26 -163 l5 -33 -53 3 -53 3 -10 55 -11 55 -53 3 c-60 4 -81 -9 -81 -47 0
-62 -9 -71 -62 -71 -49 0 -49 0 -44 27 6 36 78 479 92 573 11 73 8 71 92 68
l76 -3 28 -170z m378 125 l0 -50 -50 0 -50 0 -2 -282 -3 -283 -52 -3 -53 -3 0
285 0 285 -52 3 c-52 3 -53 4 -56 36 -6 63 -8 62 163 62 l155 0 0 -50z m-4360
-121 c0 -7 -9 -26 -19 -43 -11 -17 -29 -62 -41 -100 -30 -93 -25 -214 14 -300
18 -40 23 -63 16 -70 -27 -27 -85 192 -74 283 8 67 38 164 66 209 20 32 38 42
38 21z m846 -109 c25 -71 30 -214 9 -285 -20 -70 -61 -155 -75 -155 -15 0 -12
13 20 81 56 122 58 270 6 385 -13 29 -21 55 -18 59 10 9 40 -35 58 -85z m469
-569 c-6 -38 -24 -57 -26 -28 0 10 -2 10 -6 0 -11 -27 -23 -11 -22 30 1 36 2
38 9 17 8 -24 8 -24 9 -2 1 24 16 30 24 10 3 -7 6 -4 6 6 1 11 4 17 7 13 3 -3
3 -24 -1 -46z m210 39 c3 -5 2 -10 -3 -10 -13 0 -12 -54 2 -62 6 -5 2 -8 -11
-8 -21 0 -23 5 -23 45 0 33 4 45 14 45 8 0 18 -4 21 -10z m102 -41 c2 -33 0
-39 -7 -24 -7 17 -9 18 -9 3 -2 -36 -21 -17 -21 20 0 70 34 70 37 1z m103 42
c0 -5 -6 -12 -12 -14 -10 -4 -9 -8 2 -16 10 -7 11 -11 3 -11 -20 0 -15 -28 5
-33 13 -4 11 -5 -5 -6 -21 -1 -23 4 -23 44 0 33 4 45 15 45 8 0 15 -4 15 -9z
m170 -11 c0 7 3 11 6 8 3 -3 2 -23 -2 -44 l-7 -39 -13 35 c-18 50 -17 70 1 46
10 -13 15 -15 15 -6z m118 -34 c-2 -23 -8 -31 -23 -31 -24 0 -34 48 -14 71 18
22 41 -2 37 -40z m82 -26 c5 0 11 19 13 43 l4 42 1 -47 c2 -42 -1 -48 -18 -48
-17 0 -20 6 -18 48 l1 47 4 -42 c2 -24 8 -43 13 -43z m117 68 c11 -19 13 -78
2 -78 -5 0 -10 8 -10 18 -1 16 -2 16 -6 0 -8 -32 -23 -19 -23 20 0 50 18 69
37 40z m192 -10 c1 6 6 12 11 12 7 0 8 -14 4 -37 -8 -43 -15 -54 -22 -34 -4
11 -6 11 -13 0 -11 -18 -15 -11 -23 34 -7 37 8 54 17 20 3 -13 5 -11 7 7 1 23
2 23 10 5 5 -11 9 -14 9 -7z m218 10 c11 -19 13 -78 2 -78 -5 0 -10 8 -10 18
-1 16 -2 16 -6 0 -8 -32 -23 -19 -23 20 0 50 18 69 37 40z m101 -71 c12 -3 11
-5 -5 -6 -21 -1 -23 3 -21 47 l1 47 4 -42 c3 -29 9 -43 21 -46z m100 74 c20
-12 11 -75 -10 -79 -15 -3 -18 4 -18 42 0 47 4 52 28 37z m192 -13 c0 -6 -7
-8 -15 -4 -11 4 -15 -2 -15 -27 0 -24 3 -28 10 -17 5 8 12 11 15 8 10 -10 -4
-28 -21 -28 -10 0 -14 12 -14 38 0 21 3 41 6 45 8 8 34 -3 34 -15z m191 -6 c1
-11 4 -8 9 8 7 20 8 16 9 -22 1 -27 -3 -48 -9 -48 -5 0 -10 8 -11 18 0 14 -2
14 -9 -3 -6 -15 -9 -8 -9 28 -1 30 3 46 9 42 6 -3 10 -14 11 -23z m115 15 c11
4 14 -4 14 -36 0 -39 -19 -60 -21 -23 -1 16 -2 16 -6 0 -8 -32 -23 -19 -23 20
0 37 11 64 18 43 2 -5 10 -7 18 -4z m114 4 c0 -5 -6 -12 -12 -14 -10 -4 -9 -8
2 -16 10 -7 11 -11 3 -11 -7 0 -13 -6 -13 -14 0 -8 6 -17 13 -19 6 -3 2 -6
-10 -6 -20 -1 -23 4 -23 37 0 21 3 42 7 45 10 10 33 8 33 -2z m100 -19 c0 -15
-2 -15 -10 -2 -7 11 -10 6 -10 -20 0 -26 3 -31 10 -20 8 13 10 12 10 -3 0 -12
-6 -17 -17 -15 -22 4 -31 67 -12 79 17 10 29 2 29 -19z m93 -14 c-7 -55 -13
-61 -13 -15 0 21 -5 37 -11 37 -5 0 -7 5 -4 10 3 6 12 10 20 10 10 0 12 -11 8
-42z m107 21 c0 -6 -4 -7 -10 -4 -15 10 -12 -6 6 -26 17 -19 12 -39 -11 -39
-8 0 -17 5 -21 12 -5 8 -2 9 9 5 21 -8 21 2 2 27 -11 14 -12 23 -4 33 12 13
29 9 29 -8z m-2339 -6 c1 -17 2 -17 6 0 8 32 23 17 23 -23 0 -38 -19 -58 -21
-22 -1 16 -2 16 -6 0 -8 -33 -23 -18 -23 22 0 38 19 58 21 23z m1129 -23 c0
-33 -3 -40 -20 -40 -17 0 -20 7 -20 40 0 33 3 40 20 40 17 0 20 -7 20 -40z
m590 -1 c0 -33 -3 -40 -17 -37 -13 2 -19 14 -21 41 -3 32 0 37 17 37 18 0 21
-6 21 -41z m-2460 13 c0 -14 -90 -59 -154 -77 -108 -31 -285 -8 -358 46 -37
28 -16 30 48 4 132 -53 261 -52 379 5 63 30 85 36 85 22z"/>
<path d="M3142 1004 c-22 -15 -22 -19 -22 -228 0 -194 2 -214 18 -229 26 -23
58 -21 76 5 13 19 16 58 16 225 0 190 -1 204 -20 223 -24 24 -38 25 -68 4z"/>
<path d="M3510 911 c0 -109 6 -120 57 -100 38 14 43 25 43 101 0 78 -14 98
-66 98 l-34 0 0 -99z"/>
<path d="M3894 997 c-3 -8 -4 -45 -2 -83 l3 -69 40 0 c32 0 42 5 53 25 15 29
10 103 -8 125 -16 19 -79 20 -86 2z"/>
<path d="M3902 727 c-9 -10 -12 -44 -10 -104 l3 -88 35 -3 c59 -5 75 15 75 97
0 78 -10 97 -61 107 -20 4 -34 1 -42 -9z"/>
<path d="M5605 823 c-25 -181 -27 -167 21 -171 27 -2 43 1 46 10 6 16 -29 255
-40 275 -5 8 -16 -38 -27 -114z"/>
<path d="M3752 260 c0 -19 2 -27 5 -17 2 9 2 25 0 35 -3 9 -5 1 -5 -18z"/>
<path d="M4572 260 c0 -19 2 -27 5 -17 2 9 2 25 0 35 -3 9 -5 1 -5 -18z"/>
<path d="M4260 260 c0 -16 5 -30 10 -30 6 0 10 14 10 30 0 17 -4 30 -10 30 -5
0 -10 -13 -10 -30z"/>
<path d="M4855 278 c-4 -10 -4 -26 0 -35 8 -17 8 -17 12 0 3 9 3 25 0 35 -4
16 -4 16 -12 0z"/>
</g>
</svg>
